<svg width="15" height="17" viewBox="0 0 15 17" fill="none" xmlns="http://www.w3.org/2000/svg">
<path d="M13.5402 15.9664L13.1831 15.0695C13.0025 14.6145 12.722 14.2064 12.3628 13.8737L12.2975 13.8136C11.7323 13.2891 10.9895 12.9973 10.2182 12.9973H5.1024C4.33106 12.9973 3.58828 13.2891 3.02202 13.8125L2.95672 13.8737C2.59757 14.2064 2.31801 14.6145 2.1364 15.0695L1.7793 15.9664" stroke="white" stroke-width="1.77404" stroke-linecap="round" stroke-linejoin="round"/>
<path d="M10.185 2.81998C11.5796 4.21456 11.5796 6.47561 10.185 7.87019C8.79043 9.26477 6.52938 9.26477 5.1348 7.87019C3.74022 6.47561 3.74022 4.21456 5.1348 2.81998C6.52938 1.4254 8.79043 1.4254 10.185 2.81998" stroke="white" stroke-width="1.77404" stroke-linecap="round" stroke-linejoin="round"/>
</svg>
