<svg width="65" height="65" viewBox="0 0 65 65" fill="none" xmlns="http://www.w3.org/2000/svg">
<g id="favicon">
<g id="favicon_2">
<rect id="Rectangle 354" width="65" height="65" rx="8" fill="url(#paint0_linear_602_3172)"/>
<path id="Vector" d="M32.4998 9.02173C24.9865 8.9913 17.7673 11.8169 12.4247 16.879C7.08219 21.9412 4.05238 28.8267 3.99954 36.0261C3.99434 39.5766 4.72903 43.0924 6.16053 46.3672C7.59202 49.642 9.69149 52.61 12.3358 55.097C13.456 56.1518 14.9637 56.7428 16.5342 56.7428C18.1047 56.7428 19.6124 56.1518 20.7326 55.097C21.2838 54.5773 21.7216 53.9576 22.0204 53.2741C22.3192 52.5905 22.4731 51.8569 22.4731 51.1158C22.4731 50.3748 22.3192 49.6411 22.0204 48.9576C21.7216 48.2741 21.2838 47.6544 20.7326 47.1346C19.191 45.6819 17.9667 43.9497 17.1309 42.0389C16.2952 40.1281 15.8648 38.077 15.8648 36.0052C15.8648 33.9334 16.2952 31.8823 17.1309 29.9715C17.9667 28.0607 19.191 26.3285 20.7326 24.8758C23.8658 21.9221 28.0851 20.2667 32.4804 20.2667C36.8758 20.2667 41.095 21.9221 44.2283 24.8758C45.7699 26.3285 46.9942 28.0607 47.8299 29.9715C48.6657 31.8823 49.0961 33.9334 49.0961 36.0052C49.0961 38.077 48.6657 40.1281 47.8299 42.0389C46.9942 43.9497 45.7699 45.6819 44.2283 47.1346C43.6771 47.6544 43.2393 48.2741 42.9405 48.9576C42.6417 49.6411 42.4878 50.3748 42.4878 51.1158C42.4878 51.8569 42.6417 52.5905 42.9405 53.2741C43.2393 53.9576 43.6771 54.5773 44.2283 55.097C45.3485 56.1518 46.8562 56.7428 48.4267 56.7428C49.9972 56.7428 51.5048 56.1518 52.6251 55.097C55.2764 52.6131 57.383 49.6465 58.8212 46.3716C60.2594 43.0966 61.0001 39.5792 61 36.0261C60.9471 28.8267 57.9173 21.9412 52.5748 16.879C47.2323 11.8169 40.013 8.9913 32.4998 9.02173V9.02173Z" fill="white"/>
</g>
</g>
<defs>
<linearGradient id="paint0_linear_602_3172" x1="0.654511" y1="19.8171" x2="67.804" y2="32.2909" gradientUnits="userSpaceOnUse">
<stop stop-color="#00A5F0"/>
<stop offset="1" stop-color="#00D7D7"/>
</linearGradient>
</defs>
</svg>
